<svg xmlns="http://www.w3.org/2000/svg" width="960" height="540" viewBox="0 0 960 540">
<rect width="100%" height="100%" fill="#faf8f2"/>
<text x="90" y="38" font-family="Georgia, serif" font-size="24" fill="#111">Figure 2. Latency-Diligence Curve</text>
<text x="90" y="58" font-family="Arial, sans-serif" font-size="12" fill="#555">Reply timing balances diligence, reliability, and assignment hazard.</text>
<line x1="90" y1="390.0" x2="850" y2="390.0" stroke="#e2ddd2" stroke-width="1"/>
<text x="58" y="394.0" font-family="Arial, sans-serif" font-size="12" fill="#666">0</text>
<line x1="90" y1="326.0" x2="850" y2="326.0" stroke="#e2ddd2" stroke-width="1"/>
<text x="58" y="330.0" font-family="Arial, sans-serif" font-size="12" fill="#666">2</text>
<line x1="90" y1="262.0" x2="850" y2="262.0" stroke="#e2ddd2" stroke-width="1"/>
<text x="58" y="266.0" font-family="Arial, sans-serif" font-size="12" fill="#666">4</text>
<line x1="90" y1="198.0" x2="850" y2="198.0" stroke="#e2ddd2" stroke-width="1"/>
<text x="58" y="202.0" font-family="Arial, sans-serif" font-size="12" fill="#666">6</text>
<line x1="90" y1="134.0" x2="850" y2="134.0" stroke="#e2ddd2" stroke-width="1"/>
<text x="58" y="138.0" font-family="Arial, sans-serif" font-size="12" fill="#666">8</text>
<line x1="90" y1="70.0" x2="850" y2="70.0" stroke="#e2ddd2" stroke-width="1"/>
<text x="58" y="74.0" font-family="Arial, sans-serif" font-size="12" fill="#666">10</text>
<line x1="90" y1="70" x2="90" y2="390" stroke="#333" stroke-width="2"/>
<line x1="90" y1="390" x2="850" y2="390" stroke="#333" stroke-width="2"/>
<text x="90.0" y="420" text-anchor="middle" font-family="Arial, sans-serif" font-size="12" fill="#333">lt-2</text>
<text x="242.0" y="420" text-anchor="middle" font-family="Arial, sans-serif" font-size="12" fill="#333">2-7</text>
<text x="394.0" y="420" text-anchor="middle" font-family="Arial, sans-serif" font-size="12" fill="#333">8-18</text>
<text x="546.0" y="420" text-anchor="middle" font-family="Arial, sans-serif" font-size="12" fill="#333">19-47</text>
<text x="698.0" y="420" text-anchor="middle" font-family="Arial, sans-serif" font-size="12" fill="#333">48-180</text>
<text x="850.0" y="420" text-anchor="middle" font-family="Arial, sans-serif" font-size="12" fill="#333">gt-180</text>
<polyline fill="none" stroke="#111" stroke-width="4" points="90.0,188.4 242.0,153.2 394.0,98.8 546.0,121.2 698.0,207.6 850.0,313.2"/>
<polyline fill="none" stroke="#3d6e70" stroke-width="4" points="90.0,130.8 242.0,118.0 394.0,95.6 546.0,140.4 698.0,233.2 850.0,322.8"/>
<polyline fill="none" stroke="#b35c1e" stroke-width="4" points="90.0,108.4 242.0,137.2 394.0,223.6 546.0,252.4 698.0,306.8 850.0,332.4"/>
<text x="740" y="95" font-family="Arial, sans-serif" font-size="13" fill="#111">Diligence</text>
<line x1="700" y1="90" x2="730" y2="90" stroke="#111" stroke-width="4"/>
<text x="740" y="120" font-family="Arial, sans-serif" font-size="13" fill="#3d6e70">Reliability</text>
<line x1="700" y1="115" x2="730" y2="115" stroke="#3d6e70" stroke-width="4"/>
<text x="740" y="145" font-family="Arial, sans-serif" font-size="13" fill="#b35c1e">Assignment hazard</text>
<line x1="700" y1="140" x2="730" y2="140" stroke="#b35c1e" stroke-width="4"/>
</svg>