<svg xmlns="http://www.w3.org/2000/svg" width="960" height="520" viewBox="0 0 960 520">
<rect width="100%" height="100%" fill="#faf8f2"/>
<text x="110" y="40" font-family="Georgia, serif" font-size="24" fill="#111">Figure 4. Publication Position and Reply Enthusiasm</text>
<text x="110" y="60" font-family="Arial, sans-serif" font-size="12" fill="#555">The least published and the most entangled reply early for opposite reasons; the middle delays because it can.</text>
<line x1="110" y1="370.0" x2="790" y2="370.0" stroke="#e2ddd2" stroke-width="1"/>
<text x="80" y="374.0" font-family="Arial, sans-serif" font-size="12" fill="#666">0</text>
<line x1="110" y1="323.3" x2="790" y2="323.3" stroke="#e2ddd2" stroke-width="1"/>
<text x="80" y="327.3" font-family="Arial, sans-serif" font-size="12" fill="#666">5</text>
<line x1="110" y1="276.7" x2="790" y2="276.7" stroke="#e2ddd2" stroke-width="1"/>
<text x="80" y="280.7" font-family="Arial, sans-serif" font-size="12" fill="#666">10</text>
<line x1="110" y1="230.0" x2="790" y2="230.0" stroke="#e2ddd2" stroke-width="1"/>
<text x="80" y="234.0" font-family="Arial, sans-serif" font-size="12" fill="#666">15</text>
<line x1="110" y1="183.3" x2="790" y2="183.3" stroke="#e2ddd2" stroke-width="1"/>
<text x="80" y="187.3" font-family="Arial, sans-serif" font-size="12" fill="#666">20</text>
<line x1="110" y1="136.7" x2="790" y2="136.7" stroke="#e2ddd2" stroke-width="1"/>
<text x="80" y="140.7" font-family="Arial, sans-serif" font-size="12" fill="#666">25</text>
<line x1="110" y1="90.0" x2="790" y2="90.0" stroke="#e2ddd2" stroke-width="1"/>
<text x="80" y="94.0" font-family="Arial, sans-serif" font-size="12" fill="#666">30</text>
<line x1="110" y1="90" x2="110" y2="370" stroke="#333" stroke-width="2"/>
<line x1="110" y1="370" x2="790" y2="370" stroke="#333" stroke-width="2"/>
<polyline fill="none" stroke="#111" stroke-width="4" points="110.0,286.0 450.0,174.0 790.0,267.3"/>
<circle cx="110.0" cy="286.0" r="8" fill="#b35c1e" stroke="#111" stroke-width="1.4"/>
<text x="110.0" y="398" text-anchor="middle" font-family="Arial, sans-serif" font-size="12" fill="#333">No paper yet</text>
<text x="122.0" y="276.0" font-family="Arial, sans-serif" font-size="12" fill="#222">9 min</text>
<circle cx="450.0" cy="174.0" r="8" fill="#b35c1e" stroke="#111" stroke-width="1.4"/>
<text x="450.0" y="398" text-anchor="middle" font-family="Arial, sans-serif" font-size="12" fill="#333">1-2 visible outputs</text>
<text x="462.0" y="164.0" font-family="Arial, sans-serif" font-size="12" fill="#222">21 min</text>
<circle cx="790.0" cy="267.3" r="8" fill="#b35c1e" stroke="#111" stroke-width="1.4"/>
<text x="790.0" y="398" text-anchor="middle" font-family="Arial, sans-serif" font-size="12" fill="#333">3+ outputs / pipeline-central</text>
<text x="802.0" y="257.3" font-family="Arial, sans-serif" font-size="12" fill="#222">11 min</text>
<text x="110" y="430" font-family="Arial, sans-serif" font-size="12" fill="#555">Interpretation: insecurity moves the left point, ownership moves the right point, and camouflage protects the middle.</text>
</svg>