<svg xmlns="http://www.w3.org/2000/svg" width="1000" height="560" viewBox="0 0 1000 560">
<rect width="100%" height="100%" fill="#faf8f2"/>
<text x="280" y="40" font-family="Georgia, serif" font-size="24" fill="#111">Figure 6. Laboratory Species Response Windows</text>
<text x="280" y="60" font-family="Arial, sans-serif" font-size="12" fill="#555">The funniest species are funny because their structural timing windows are legible.</text>
<line x1="280" y1="400" x2="900" y2="400" stroke="#333" stroke-width="2"/>
<line x1="280.0" y1="72" x2="280.0" y2="396" stroke="#e2ddd2" stroke-width="1"/>
<text x="280.0" y="424" text-anchor="middle" font-family="Arial, sans-serif" font-size="12" fill="#333">0</text>
<line x1="368.6" y1="72" x2="368.6" y2="396" stroke="#e2ddd2" stroke-width="1"/>
<text x="368.6" y="424" text-anchor="middle" font-family="Arial, sans-serif" font-size="12" fill="#333">10</text>
<line x1="457.1" y1="72" x2="457.1" y2="396" stroke="#e2ddd2" stroke-width="1"/>
<text x="457.1" y="424" text-anchor="middle" font-family="Arial, sans-serif" font-size="12" fill="#333">20</text>
<line x1="545.7" y1="72" x2="545.7" y2="396" stroke="#e2ddd2" stroke-width="1"/>
<text x="545.7" y="424" text-anchor="middle" font-family="Arial, sans-serif" font-size="12" fill="#333">30</text>
<line x1="634.3" y1="72" x2="634.3" y2="396" stroke="#e2ddd2" stroke-width="1"/>
<text x="634.3" y="424" text-anchor="middle" font-family="Arial, sans-serif" font-size="12" fill="#333">40</text>
<line x1="722.9" y1="72" x2="722.9" y2="396" stroke="#e2ddd2" stroke-width="1"/>
<text x="722.9" y="424" text-anchor="middle" font-family="Arial, sans-serif" font-size="12" fill="#333">50</text>
<line x1="811.4" y1="72" x2="811.4" y2="396" stroke="#e2ddd2" stroke-width="1"/>
<text x="811.4" y="424" text-anchor="middle" font-family="Arial, sans-serif" font-size="12" fill="#333">60</text>
<line x1="900.0" y1="72" x2="900.0" y2="396" stroke="#e2ddd2" stroke-width="1"/>
<text x="900.0" y="424" text-anchor="middle" font-family="Arial, sans-serif" font-size="12" fill="#333">70</text>
<text x="262" y="111" text-anchor="end" font-family="Arial, sans-serif" font-size="13" fill="#222">Gatekeeping dog</text>
<rect x="297.7" y="88.0" width="53.1" height="36" rx="7" fill="#7a1f1f" stroke="#111" stroke-width="1"/>
<text x="358.9" y="112" font-family="Arial, sans-serif" font-size="12" fill="#444">2-8 min</text>
<text x="262" y="163" text-anchor="end" font-family="Arial, sans-serif" font-size="13" fill="#222">First-author junior</text>
<rect x="324.3" y="140.0" width="79.7" height="36" rx="7" fill="#8b5e34" stroke="#111" stroke-width="1"/>
<text x="412.0" y="164" font-family="Arial, sans-serif" font-size="12" fill="#444">5-14 min</text>
<text x="262" y="215" text-anchor="end" font-family="Arial, sans-serif" font-size="13" fill="#222">Procurement-reimbursement bottleneck</text>
<rect x="315.4" y="192.0" width="70.9" height="36" rx="7" fill="#a86d2a" stroke="#111" stroke-width="1"/>
<text x="394.3" y="216" font-family="Arial, sans-serif" font-size="12" fill="#444">4-12 min</text>
<text x="262" y="267" text-anchor="end" font-family="Arial, sans-serif" font-size="13" fill="#222">Experiment operator</text>
<rect x="306.6" y="244.0" width="70.9" height="36" rx="7" fill="#3d6e70" stroke="#111" stroke-width="1"/>
<text x="385.4" y="268" font-family="Arial, sans-serif" font-size="12" fill="#444">3-11 min</text>
<text x="262" y="319" text-anchor="end" font-family="Arial, sans-serif" font-size="13" fill="#222">Dragging bottle</text>
<rect x="439.4" y="296.0" width="203.7" height="36" rx="7" fill="#6b6b6b" stroke="#111" stroke-width="1"/>
<text x="651.1" y="320" font-family="Arial, sans-serif" font-size="12" fill="#444">18-41 min</text>
<text x="262" y="371" text-anchor="end" font-family="Arial, sans-serif" font-size="13" fill="#222">Peer-only muddy-water fish</text>
<rect x="474.9" y="348.0" width="345.4" height="36" rx="7" fill="#4f6d42" stroke="#111" stroke-width="1"/>
<text x="828.3" y="372" font-family="Arial, sans-serif" font-size="12" fill="#444">22-61 min</text>
<text x="280" y="520" font-family="Arial, sans-serif" font-size="12" fill="#555">Interpretation: role comedy works because timing inequality is already built into the office.</text>
</svg>